<svg xmlns="http://www.w3.org/2000/svg" version="1.0" preserveAspectRatio="xMidYMid meet" viewBox="176.34 224.2 624.5 588.89">

<g transform="translate(0.000000,1024.000000) scale(0.100000,-0.100000)" fill="#000000" stroke="none">
<path d="M7685 7980 c-104 -9 -228 -20 -275 -24 -47 -4 -182 -15 -300 -26 -118 -10 -281 -24 -362 -30 -82 -7 -148 -16 -148 -19 0 -9 417 -391 550 -504 l45 -38 -185 -181 c-102 -100 -547 -539 -989 -977 -644 -638 -809 -797 -832 -799 -26 -3 -56 23 -267 225 -130 125 -332 318 -447 428 -251 240 -573 547 -983 940 l-303 290 1739 5 c1892 5 1772 1 1772 61 0 36 -38 80 -139 161 -138 111 83 100 -1877 100 -1909 0 -1767 5 -1854 -69 -23 -20 -53 -60 -66 -87 -22 -48 -24 -62 -24 -244 0 -114 -4 -201 -10 -213 -10 -18 -24 -19 -308 -19 -289 0 -298 -1 -336 -23 -99 -56 -100 -188 -2 -261 26 -20 42 -21 336 -24 l308 -3 6 -31 c10 -48 7 -157 -4 -179 -10 -18 -23 -19 -206 -19 -176 0 -199 -2 -235 -20 -50 -26 -79 -72 -79 -128 0 -54 20 -93 67 -129 l36 -28 386 0 c368 0 388 1 420 20 47 28 72 65 78 116 8 81 -53 151 -143 165 l-44 6 0 275 c0 159 4 273 9 271 11 -4 76 -65 519 -491 196 -189 417 -399 490 -468 l132 -124 -78 -75 c-85 -82 -390 -364 -511 -473 -136 -123 -56 -111 -813 -117 -644 -5 -657 -5 -684 -26 -71 -53 -90 -121 -52 -194 17 -33 35 -51 68 -68 l45 -23 660 3 c649 3 661 3 705 24 40 19 85 57 240 198 25 22 95 86 155 141 94 85 294 269 427 393 l37 35 293 -281 c325 -310 365 -346 417 -369 53 -23 174 -23 236 1 61 24 46 9 895 846 772 760 1108 1090 1167 1144 l42 39 196 -298 c108 -163 198 -295 201 -293 8 8 44 245 89 583 25 187 61 447 80 579 40 276 42 307 17 329 -22 21 -52 20 -307 -3z"/>
<path d="M5099 6995 c-54 -17 -114 -73 -130 -122 -18 -55 -7 -135 25 -183 38 -58 118 -95 184 -85 116 17 183 90 184 199 1 93 -57 170 -147 195 -49 13 -59 13 -116 -4z"/>
<path d="M7279 6681 c-23 -18 -24 -26 -29 -186 l-5 -166 -55 -52 c-72 -67 -307 -280 -580 -527 -118 -107 -276 -251 -350 -320 -74 -69 -277 -254 -450 -410 -173 -156 -382 -345 -464 -420 -399 -362 -614 -555 -645 -578 l-33 -26 -334 -1 c-184 0 -334 2 -334 6 0 3 93 91 207 195 114 104 236 216 272 249 37 33 116 104 177 158 62 54 118 111 124 128 31 74 -15 159 -96 177 -55 12 -105 -5 -158 -56 -46 -44 -417 -388 -697 -648 -101 -94 -196 -178 -211 -188 -22 -14 -55 -17 -213 -19 l-187 -2 53 49 c30 27 153 137 274 245 121 107 310 277 420 376 110 99 239 214 287 254 103 87 129 135 110 199 -14 46 -44 75 -95 92 -81 26 -109 6 -417 -284 -88 -83 -477 -438 -737 -674 -117 -105 -226 -198 -243 -207 -26 -14 -81 -16 -388 -15 -398 0 -404 -1 -449 -69 -50 -74 -15 -190 67 -223 14 -6 142 -12 302 -14 256 -3 284 -5 350 -26 l73 -23 2270 0 2270 0 50 27 c62 33 108 80 134 138 20 44 21 59 20 1260 0 975 -2 1222 -13 1252 -15 42 -156 274 -193 318 -29 35 -51 38 -84 11z m-31 -1893 l-3 -747 -23 -23 -23 -23 -649 0 c-358 0 -650 3 -650 7 0 4 11 15 24 26 14 10 191 169 393 353 202 184 400 363 440 398 52 45 77 76 89 108 16 42 16 46 -2 90 -31 75 -131 108 -195 65 -23 -15 -229 -202 -469 -427 -41 -39 -131 -122 -200 -185 -69 -63 -200 -186 -292 -272 l-168 -158 -67 -1 c-288 -4 -383 -3 -383 2 0 3 100 96 223 205 122 109 251 226 287 259 58 54 200 184 490 445 52 47 227 207 390 355 276 253 455 416 688 628 l97 88 3 -223 c1 -123 1 -559 0 -970z"/>
<path d="M1881 5857 c-50 -10 -97 -55 -111 -105 -20 -76 28 -157 106 -179 27 -8 234 -10 674 -9 703 3 688 2 727 67 31 51 35 84 18 126 -19 46 -41 70 -79 90 -25 13 -121 15 -662 17 -347 0 -650 -3 -673 -7z"/>
<path d="M1872 4700 c-42 -10 -88 -53 -103 -97 -20 -63 16 -149 75 -177 30 -14 96 -16 545 -16 484 0 514 1 549 19 105 54 99 207 -12 260 -41 20 -56 21 -532 20 -269 -1 -504 -5 -522 -9z"/>
<path d="M5612 3019 c-169 -16 -318 -142 -372 -316 -83 -270 108 -566 381 -589 150 -13 303 54 369 161 22 35 22 36 4 57 -23 25 -130 108 -139 108 -4 0 -27 -18 -51 -39 -55 -48 -123 -68 -181 -52 -118 32 -192 153 -164 268 36 144 176 217 298 155 23 -12 44 -26 48 -32 3 -5 14 -14 25 -20 15 -8 31 0 88 45 38 30 72 61 76 70 9 24 -73 107 -142 143 -70 38 -142 50 -240 41z"/>
<path d="M2313 3005 l-23 -16 0 -423 c0 -502 -11 -463 124 -451 47 4 90 12 95 19 6 7 12 59 13 117 l3 104 106 6 c141 8 207 30 274 90 71 65 99 130 99 229 0 95 -34 176 -102 243 -85 84 -115 92 -357 95 -180 3 -213 1 -232 -13z m400 -227 c30 -12 57 -53 57 -88 0 -37 -30 -81 -65 -96 -19 -8 -66 -14 -104 -14 -81 0 -79 -4 -73 132 l3 77 37 3 c50 5 111 -1 145 -14z"/>
<path d="M3494 3008 c-13 -6 -33 -37 -50 -77 -15 -36 -37 -88 -50 -116 -12 -27 -45 -104 -74 -170 -29 -66 -85 -195 -126 -287 -89 -203 -91 -209 -66 -231 16 -15 34 -17 109 -14 50 2 96 8 103 12 7 4 23 31 36 60 12 29 27 56 31 58 5 3 83 7 173 9 l165 3 32 -59 c17 -33 39 -66 49 -73 20 -15 167 -16 197 -1 36 18 32 29 -215 588 -36 80 -77 176 -93 213 -16 38 -38 75 -49 83 -24 16 -140 18 -172 2z m161 -528 c-9 -14 -155 -13 -155 1 0 6 17 49 37 96 l36 86 44 -87 c24 -48 41 -91 38 -96z"/>
<path d="M4293 3005 l-23 -16 0 -424 0 -425 24 -15 c28 -19 166 -16 190 4 12 10 16 39 18 129 l3 117 47 3 47 3 78 -112 c119 -170 95 -153 213 -155 88 -1 106 2 122 18 17 17 17 20 3 49 -9 16 -50 79 -91 138 -40 60 -74 113 -74 117 0 5 16 21 35 37 19 15 47 49 62 75 25 43 28 56 28 142 0 112 -22 167 -93 238 -79 79 -106 86 -352 90 -185 3 -218 1 -237 -13z m389 -217 c75 -26 81 -148 8 -178 -14 -6 -62 -10 -106 -8 l-79 3 -3 84 c-2 46 0 91 3 98 6 16 130 17 177 1z"/>
<path d="M6302 3004 l-22 -15 0 -424 0 -425 23 -14 c18 -12 74 -15 315 -14 350 0 331 -6 333 112 3 117 3 117 -225 116 -100 0 -189 -1 -198 0 -15 0 -18 9 -18 54 0 30 4 57 9 61 5 3 73 5 151 6 136 0 143 1 166 24 20 21 24 34 24 90 0 102 -5 105 -195 105 l-155 0 0 54 c0 45 3 56 19 61 11 3 98 5 193 5 209 -2 193 -3 212 16 12 11 16 36 16 90 0 120 17 114 -333 114 -249 0 -296 -2 -315 -16z"/>
<path d="M7260 3000 c-20 -20 -21 -30 -18 -441 3 -401 4 -421 22 -435 15 -11 75 -14 296 -13 337 0 320 -6 320 113 0 119 6 116 -217 116 l-181 0 -7 31 c-4 17 -5 160 -3 318 4 348 10 331 -114 331 -65 0 -81 -3 -98 -20z"/>
</g>
</svg>